<svg xmlns="http://www.w3.org/2000/svg" xmlns:xlink="http://www.w3.org/1999/xlink" width="1080" zoomAndPan="magnify" viewBox="0 0 810 1439.999935" height="1920" preserveAspectRatio="xMidYMid meet" version="1.0"><path fill="#5e3023" d="M 637.789062 1925.449219 C 649.304688 1925.449219 658.398438 1923.632812 661.125 1923.027344 C 667.792969 1921.511719 673.25 1919.695312 677.191406 1917.875 C 676.886719 1945.144531 676.886719 1972.417969 676.585938 1999.6875 C 617.175781 1999.6875 557.769531 1999.6875 498.359375 1999.6875 C 434.707031 1999.6875 370.753906 1999.6875 307.101562 1999.6875 C 304.980469 1959.992188 314.074219 1946.359375 322.863281 1941.207031 C 338.019531 1932.117188 353.476562 1943.023438 374.695312 1941.207031 C 386.210938 1940.296875 401.972656 1935.148438 420.160156 1916.058594 C 427.738281 1919.695312 441.375 1924.84375 459.5625 1925.449219 C 477.445312 1925.753906 491.085938 1921.207031 498.664062 1917.875 C 498.664062 1922.117188 498.964844 1926.058594 498.964844 1930.300781 C 498.964844 1935.753906 499.269531 1940.902344 499.269531 1946.359375 C 502.601562 1944.539062 508.058594 1941.511719 515.332031 1938.78125 C 538.066406 1930.90625 551.101562 1937.570312 571.710938 1931.207031 C 578.074219 1929.085938 587.472656 1925.449219 598.082031 1917.269531 C 607.476562 1920.90625 621.117188 1925.148438 637.789062 1925.449219 Z M 726.597656 602.835938 C 724.777344 597.382812 719.929688 586.167969 704.773438 576.171875 C 702.347656 562.230469 695.679688 537.386719 675.371094 517.386719 C 633.242188 476.179688 549.28125 474.058594 515.941406 518.296875 C 512 523.449219 495.632812 547.082031 503.210938 590.410156 C 534.730469 657.679688 589.289062 699.796875 641.425781 695.554688 C 664.761719 693.738281 683.859375 681.617188 685.675781 680.402344 C 708.714844 665.558594 735.992188 632.832031 726.597656 602.835938 Z M 726.597656 602.835938 " fill-opacity="1" fill-rule="nonzero"/><path fill="#f9943b" d="M 578.984375 1290.65625 C 581.714844 1290.65625 584.136719 1290.65625 586.867188 1290.65625 M 586.867188 1290.65625 C 633.242188 1290.65625 679.617188 1290.65625 725.6875 1290.65625 C 725.6875 1400.949219 725.6875 1510.941406 725.6875 1621.234375 C 706.894531 1627.292969 680.222656 1633.65625 647.488281 1634.261719 C 609.902344 1634.867188 578.984375 1627.597656 558.980469 1621.234375 C 554.132812 1546.390625 549.28125 1471.550781 544.429688 1396.40625 C 542.308594 1471.246094 540.492188 1546.390625 538.371094 1621.234375 C 522.003906 1626.992188 500.179688 1632.75 474.414062 1634.566406 C 430.464844 1637.898438 394.394531 1628.808594 372.574219 1621.234375 C 375.90625 1510.941406 378.9375 1400.949219 382.273438 1290.65625 C 433.800781 1290.65625 485.023438 1290.65625 536.550781 1290.65625 C 546.25 1290.65625 555.949219 1290.65625 565.648438 1290.65625 C 570.195312 1290.65625 574.4375 1290.65625 578.984375 1290.65625 " fill-opacity="1" fill-rule="nonzero"/><path fill="#6cf93b" d="M 607.171875 777.667969 C 629.601562 780.699219 733.265625 796.152344 753.269531 854.632812 C 757.210938 866.144531 759.332031 883.71875 760.542969 895.839844 C 764.789062 931.898438 762.96875 962.199219 760.847656 982.804688 C 747.207031 1005.527344 733.871094 1028.253906 720.230469 1050.980469 L 732.660156 1299.746094 C 695.074219 1312.773438 643.242188 1325.804688 581.105469 1328.835938 C 491.996094 1333.378906 419.855469 1315.199219 374.390625 1299.746094 C 381.058594 1210.664062 388.03125 1121.578125 394.699219 1032.496094 C 416.21875 954.015625 438.042969 875.84375 459.5625 797.363281 C 508.664062 790.699219 557.769531 784.335938 607.171875 777.667969 Z M 484.71875 765.851562 C 467.140625 763.125 419.855469 758.277344 391.667969 786.757812 C 378.027344 800.695312 373.480469 819.785156 364.996094 857.964844 C 357.113281 892.507812 353.476562 921.597656 351.660156 941.59375 C 358.023438 941.292969 364.386719 940.683594 370.753906 940.382812 C 412.582031 884.023438 454.410156 827.664062 495.933594 771.304688 C 492.296875 769.488281 488.660156 767.667969 484.71875 765.851562 Z M 484.71875 765.851562 " fill-opacity="1" fill-rule="nonzero"/><path fill="#e8af7a" d="M 611.417969 752.519531 C 611.417969 753.730469 611.417969 754.941406 611.113281 755.851562 M 611.113281 755.851562 C 610.203125 772.519531 609.296875 789.183594 608.386719 806.152344 C 601.113281 811.910156 586.867188 821.300781 567.46875 823.121094 C 548.371094 824.9375 532.308594 818.878906 519.578125 811.300781 C 503.816406 865.84375 468.351562 977.652344 431.675781 1011.890625 C 434.101562 1012.496094 435.316406 1013.101562 435.921875 1013.101562 C 491.996094 1007.042969 549.886719 999.164062 609.902344 989.164062 C 629.300781 985.832031 648.394531 982.5 667.492188 978.863281 C 675.070312 959.167969 692.648438 945.535156 712.957031 943.714844 C 739.328125 941.59375 756.300781 960.683594 758.117188 962.804688 C 758.726562 982.195312 756.90625 1014.011719 736.296875 1037.648438 C 718.714844 1057.949219 692.648438 1066.433594 600.203125 1070.976562 C 560.800781 1072.796875 507.757812 1074.007812 444.40625 1071.582031 C 397.425781 1085.824219 360.449219 1082.792969 352.871094 1066.734375 C 346.503906 1053.707031 359.84375 1033.101562 372.269531 1022.496094 C 377.117188 1018.253906 382.273438 1015.527344 387.425781 1013.40625 C 355.902344 991.589844 357.417969 937.351562 357.71875 927.351562 C 369.84375 916.445312 382.273438 904.324219 394.394531 890.6875 C 435.921875 844.328125 462.289062 796.453125 478.960938 757.0625 C 472.292969 724.644531 471.382812 707.675781 475.929688 705.855469 C 479.265625 704.644531 485.328125 711.007812 494.117188 725.25 C 490.78125 713.734375 488.054688 700.402344 486.84375 685.859375 C 481.386719 613.742188 518.0625 560.109375 531.398438 542.535156 C 538.066406 548.597656 550.492188 558.292969 568.679688 564.050781 C 593.535156 571.929688 614.75 567.6875 624.148438 565.261719 C 617.480469 589.199219 620.8125 604.652344 625.664062 614.347656 C 631.421875 626.46875 640.816406 633.742188 644.457031 651.011719 C 646.273438 659.800781 645.972656 667.679688 645.363281 672.828125 C 646.878906 671.3125 652.640625 665.558594 661.730469 664.949219 C 668.703125 664.34375 677.492188 667.070312 681.433594 673.132812 C 690.527344 687.070312 672.039062 720.703125 652.03125 721.308594 C 647.488281 721.613281 643.546875 719.792969 640.515625 718.28125 C 636.574219 724.035156 630.816406 730.703125 623.238281 737.066406 C 619.296875 740.398438 615.359375 743.125 611.71875 745.246094 C 611.71875 747.671875 611.417969 750.09375 611.417969 752.519531 " fill-opacity="1" fill-rule="nonzero"/><path fill="#5e3023" d="M 505.632812 737.066406 C 502.90625 736.761719 502.90625 733.128906 505.632812 732.824219 C 511.695312 732.21875 516.847656 735.855469 518.667969 741.914062 C 519.578125 745.550781 514.121094 747.066406 513.210938 743.429688 C 512 739.792969 509.273438 737.367188 505.632812 737.066406 Z M 535.035156 757.367188 C 536.246094 760.699219 541.402344 759.488281 540.492188 755.851562 C 538.976562 751.003906 535.339844 747.972656 530.488281 747.066406 C 527.457031 746.460938 525.941406 751.003906 529.277344 751.914062 C 532.003906 752.824219 534.125 754.640625 535.035156 757.367188 Z M 657.1875 679.796875 C 663.855469 676.464844 672.339844 681.617188 670.523438 689.496094 C 669.308594 694.949219 664.15625 698.28125 660.214844 701.917969 C 658.09375 704.039062 660.824219 707.675781 663.550781 706.160156 C 670.824219 701.613281 678.707031 693.128906 675.675781 683.738281 C 672.644531 674.949219 662.945312 671.921875 655.0625 676.160156 C 652.03125 677.070312 654.457031 681.011719 657.1875 679.796875 Z M 388.941406 1014.617188 C 402.277344 1010.375 416.21875 1009.769531 429.554688 1012.800781 C 432.285156 1013.40625 433.191406 1009.46875 430.769531 1008.859375 C 423.191406 1006.742188 415.308594 1005.832031 407.730469 1005.832031 C 401.367188 1000.378906 396.214844 994.921875 394.09375 986.4375 C 393.183594 983.410156 388.636719 984.621094 389.242188 987.652344 C 390.757812 994.316406 394.394531 1001.589844 399.546875 1006.4375 C 395.609375 1007.042969 391.667969 1007.953125 387.425781 1009.164062 C 384.089844 1010.375 385.605469 1015.832031 388.941406 1014.617188 Z M 728.414062 1023.707031 C 724.472656 1025.527344 721.746094 1027.648438 717.199219 1026.132812 C 712.957031 1024.617188 710.53125 1020.375 710.53125 1015.832031 C 710.53125 1012.496094 705.683594 1012.496094 705.378906 1015.832031 C 705.074219 1022.195312 708.714844 1028.558594 714.773438 1030.980469 C 720.230469 1033.101562 729.019531 1032.496094 732.050781 1026.738281 C 732.960938 1024.617188 730.535156 1022.800781 728.414062 1023.707031 Z M 356.8125 1050.371094 C 366.8125 1039.464844 378.027344 1030.980469 392.273438 1025.527344 C 395.304688 1024.316406 394.09375 1019.164062 390.757812 1020.375 C 376.210938 1025.527344 362.570312 1034.3125 352.871094 1046.433594 C 350.75 1049.160156 354.386719 1053.101562 356.8125 1050.371094 Z M 391.972656 1041.28125 C 395.003906 1039.769531 392.273438 1035.222656 389.242188 1036.738281 C 376.816406 1042.496094 361.359375 1050.070312 352.566406 1060.976562 C 351.050781 1063.097656 352.871094 1066.128906 355.597656 1064.613281 C 361.660156 1060.976562 367.117188 1055.828125 373.179688 1051.886719 C 378.9375 1047.949219 385.300781 1044.3125 391.972656 1041.28125 Z M 393.789062 1047.644531 C 382.273438 1054.613281 371.058594 1061.886719 359.84375 1069.160156 C 356.8125 1071.28125 359.539062 1075.824219 362.570312 1074.007812 C 374.085938 1067.039062 385.300781 1059.464844 396.214844 1052.191406 C 399.246094 1050.371094 396.820312 1045.828125 393.789062 1047.644531 Z M 538.671875 1332.773438 C 534.730469 1356.40625 535.945312 1380.648438 538.671875 1404.28125 C 538.976562 1407.007812 543.21875 1407.007812 542.917969 1404.28125 C 540.792969 1380.648438 542.308594 1357.316406 543.523438 1333.378906 C 543.824219 1330.652344 539.277344 1330.046875 538.671875 1332.773438 Z M 431.675781 1318.53125 C 420.765625 1355.195312 405.003906 1389.132812 382.878906 1420.339844 C 380.757812 1423.371094 385.605469 1426.097656 387.726562 1423.371094 C 409.855469 1391.859375 426.523438 1357.316406 436.527344 1320.046875 C 437.4375 1316.714844 432.585938 1315.199219 431.675781 1318.53125 Z M 656.882812 1322.773438 C 665.371094 1362.164062 686.585938 1396.40625 717.804688 1421.855469 C 719.320312 1423.070312 721.445312 1423.070312 722.351562 1421.25 C 722.960938 1420.039062 723.566406 1419.128906 724.171875 1417.917969 C 725.988281 1414.886719 721.445312 1412.464844 719.625 1415.191406 C 717.503906 1418.222656 684.464844 1376.101562 683.554688 1374.589844 C 673.25 1357.921875 666.277344 1340.046875 661.730469 1321.257812 C 660.824219 1318.230469 656.277344 1319.746094 656.882812 1322.773438 Z M 536.246094 1600.328125 C 483.507812 1619.414062 429.859375 1619.71875 376.511719 1602.449219 C 373.785156 1601.539062 372.574219 1605.78125 375.300781 1606.992188 C 428.644531 1626.082031 484.417969 1625.476562 537.761719 1606.082031 C 541.402344 1604.570312 539.886719 1599.113281 536.246094 1600.328125 Z M 722.050781 1600.628906 C 668.097656 1615.171875 616.265625 1614.566406 561.707031 1603.960938 C 558.980469 1603.355469 557.769531 1607.296875 560.496094 1608.203125 C 614.144531 1623.050781 669.917969 1620.628906 723.566406 1606.386719 C 726.898438 1605.175781 725.382812 1599.71875 722.050781 1600.628906 Z M 442.890625 1525.484375 C 450.167969 1502.757812 456.230469 1479.730469 463.199219 1457.003906 C 464.109375 1453.976562 459.5625 1452.761719 458.652344 1455.792969 C 451.683594 1478.519531 444.105469 1501.242188 437.738281 1524.273438 C 436.527344 1527.300781 441.679688 1528.816406 442.890625 1525.484375 Z M 475.628906 1510.335938 C 478.050781 1503.667969 479.566406 1496.09375 481.082031 1489.125 C 481.992188 1486.09375 477.144531 1484.578125 476.234375 1487.910156 C 474.113281 1494.882812 471.6875 1501.851562 470.472656 1509.121094 C 469.867188 1512.152344 474.414062 1513.667969 475.628906 1510.335938 Z M 608.082031 1551.238281 C 614.144531 1523.363281 618.691406 1495.183594 624.148438 1467.003906 C 624.753906 1464.277344 620.511719 1463.066406 619.902344 1465.792969 C 614.144531 1493.667969 607.78125 1521.546875 602.929688 1549.726562 C 602.324219 1553.359375 607.476562 1554.875 608.082031 1551.238281 Z M 642.941406 1520.332031 C 645.0625 1512.757812 645.972656 1504.878906 647.488281 1497 C 648.09375 1493.667969 642.941406 1492.152344 642.332031 1495.488281 C 640.816406 1503.363281 638.394531 1511.546875 637.789062 1519.425781 C 637.484375 1522.757812 642.03125 1523.058594 642.941406 1520.332031 Z M 446.832031 1647.59375 C 447.4375 1643.960938 442.285156 1642.445312 441.375 1646.082031 C 439.859375 1652.140625 431.375 1651.835938 431.070312 1645.171875 C 431.070312 1641.839844 425.917969 1641.839844 425.917969 1645.171875 C 425.917969 1650.625 429.859375 1655.777344 435.316406 1656.078125 C 441.074219 1656.382812 445.921875 1652.746094 446.832031 1647.59375 Z M 606.871094 1642.746094 C 604.75 1649.109375 608.386719 1656.683594 615.359375 1658.199219 C 621.722656 1659.714844 629.601562 1654.5625 629.601562 1647.59375 C 629.601562 1644.566406 625.359375 1644.261719 624.449219 1646.988281 C 623.238281 1650.324219 620.511719 1653.65625 616.570312 1653.050781 C 612.628906 1652.140625 610.507812 1647.59375 611.71875 1644.261719 C 612.328125 1640.929688 607.78125 1639.71875 606.871094 1642.746094 Z M 499.875 1858.183594 C 473.503906 1861.820312 447.742188 1861.820312 421.371094 1856.972656 C 417.734375 1856.367188 416.21875 1861.820312 419.855469 1862.425781 C 446.832031 1867.878906 474.113281 1868.183594 500.785156 1862.121094 C 503.511719 1861.515625 502.300781 1857.878906 499.875 1858.183594 Z M 676.585938 1857.273438 C 650.214844 1861.820312 625.664062 1861.214844 599.292969 1856.0625 C 596.566406 1855.457031 595.351562 1859.699219 598.082031 1860.304688 C 623.84375 1867.878906 651.425781 1868.183594 677.796875 1862.425781 C 681.128906 1861.820312 679.617188 1856.667969 676.585938 1857.273438 Z M 507.148438 594.046875 C 517.152344 594.351562 526.851562 596.472656 535.640625 601.015625 C 538.066406 602.230469 540.492188 598.59375 538.066406 597.078125 C 528.671875 591.625 518.363281 588.289062 507.148438 588.289062 C 503.511719 588.289062 503.511719 594.046875 507.148438 594.046875 Z M 570.195312 610.105469 C 583.53125 609.5 596.261719 613.742188 605.960938 623.136719 C 608.6875 625.558594 612.628906 621.621094 609.902344 619.195312 C 598.988281 608.894531 585.046875 603.742188 570.195312 605.257812 C 567.164062 605.5625 567.164062 610.410156 570.195312 610.105469 Z M 517.152344 644.953125 C 517.457031 645.253906 517.457031 645.558594 518.0625 645.863281 C 523.820312 649.800781 529.882812 652.832031 535.945312 656.46875 C 538.671875 657.980469 540.792969 654.042969 538.371094 652.226562 C 532.914062 648.890625 527.761719 644.953125 522.003906 641.921875 C 532.914062 628.289062 544.429688 614.347656 553.222656 599.5 C 554.738281 597.078125 551.402344 594.351562 549.28125 596.472656 C 536.855469 609.804688 526.546875 626.46875 515.941406 641.621094 C 515.03125 642.527344 515.941406 644.347656 517.152344 644.953125 Z M 581.714844 752.519531 C 591.109375 755.550781 602.628906 751.308594 611.113281 747.066406 C 613.539062 745.851562 611.417969 742.21875 608.992188 743.429688 C 604.144531 745.550781 598.988281 746.761719 593.835938 747.367188 C 591.414062 747.671875 588.988281 747.671875 586.257812 747.671875 C 586.5625 747.367188 587.167969 746.761719 587.472656 746.460938 C 588.382812 745.550781 588.382812 744.339844 587.773438 743.429688 C 587.773438 743.125 587.773438 742.519531 587.472656 742.21875 C 568.984375 706.765625 522.910156 698.28125 492.601562 724.035156 C 490.480469 725.855469 493.511719 728.582031 495.632812 727.066406 C 508.363281 716.765625 523.820312 712.824219 538.671875 714.945312 C 531.09375 718.582031 524.125 723.128906 518.0625 728.277344 C 516.242188 730.097656 518.667969 732.824219 520.789062 731.613281 C 529.882812 726.765625 538.976562 721.613281 548.070312 716.765625 C 549.28125 717.066406 550.796875 717.671875 552.007812 717.976562 C 545.039062 722.523438 538.371094 727.066406 531.703125 731.914062 C 528.972656 733.734375 531.398438 738.277344 534.429688 736.460938 C 542.308594 731.308594 550.492188 726.15625 558.070312 720.703125 C 560.496094 721.914062 562.617188 723.128906 564.738281 724.644531 C 555.949219 728.886719 547.460938 733.734375 539.582031 739.488281 C 536.855469 741.308594 539.277344 745.851562 542.308594 744.035156 C 550.796875 738.277344 559.890625 733.128906 569.285156 728.582031 C 569.285156 728.582031 569.589844 728.582031 569.589844 728.277344 C 571.40625 729.792969 572.921875 731.308594 574.4375 733.128906 C 565.953125 737.671875 557.769531 742.21875 549.585938 746.761719 C 546.855469 748.277344 549.28125 752.519531 552.007812 751.003906 C 560.800781 746.460938 569.285156 742.21875 577.773438 737.367188 C 579.289062 739.488281 580.804688 741.914062 582.015625 744.339844 C 559.890625 765.246094 538.371094 787.0625 517.152344 809.179688 C 514.726562 811.605469 518.363281 815.542969 521.09375 813.121094 C 542.007812 793.121094 562.316406 773.125 581.714844 752.519531 C 581.714844 752.214844 581.714844 752.519531 581.714844 752.519531 Z M 503.511719 679.496094 C 518.363281 680.707031 532.003906 686.160156 543.21875 696.160156 C 545.339844 697.976562 548.371094 694.949219 546.25 693.128906 C 534.730469 681.3125 519.878906 674.648438 503.511719 674.042969 C 499.875 673.738281 500.179688 679.496094 503.511719 679.496094 Z M 514.121094 687.375 C 511.695312 687.675781 511.695312 691.617188 514.121094 692.222656 C 517.457031 692.828125 520.789062 692.523438 523.820312 692.523438 C 527.15625 692.523438 527.15625 687.675781 523.820312 687.375 C 520.488281 687.375 517.457031 687.070312 514.121094 687.375 Z M 514.121094 687.375 " fill-opacity="1" fill-rule="nonzero"/><path fill="#5e3023" d="M 583.835938 627.378906 C 584.136719 630.710938 581.410156 634.652344 578.683594 636.46875 C 577.46875 637.074219 576.257812 637.679688 574.742188 637.679688 C 573.226562 637.679688 572.015625 637.074219 571.105469 636.164062 C 570.195312 635.257812 570.195312 633.742188 570.195312 632.226562 C 570.195312 630.710938 571.105469 629.800781 571.710938 628.589844 C 572.921875 626.773438 574.4375 624.953125 576.558594 624.046875 C 579.589844 623.136719 583.53125 624.046875 583.835938 627.378906 Z M 514.425781 606.773438 C 512.300781 607.683594 510.789062 609.5 509.574219 611.320312 C 508.96875 612.53125 508.363281 613.742188 508.058594 614.957031 C 507.757812 616.167969 508.058594 617.683594 508.96875 618.894531 C 509.878906 620.105469 511.394531 620.410156 512.605469 620.410156 C 514.121094 620.410156 515.332031 619.804688 516.546875 619.195312 C 519.273438 617.378906 522.003906 613.441406 521.699219 610.105469 C 521.09375 606.773438 517.152344 605.5625 514.425781 606.773438 Z M 514.425781 606.773438 " fill-opacity="1" fill-rule="nonzero"/><path fill="#f3e9dc" d="M 516.242188 828.269531 C 557.160156 841.90625 625.058594 840.695312 628.996094 783.425781 C 629.300781 779.789062 635.058594 779.789062 634.757812 783.425781 C 630.816406 842.816406 559.585938 850.691406 515.03125 832.816406 C 512.300781 831.605469 513.515625 827.363281 516.242188 828.269531 Z M 357.113281 910.386719 C 364.996094 907.960938 372.875 904.929688 380.757812 902.203125 C 383.484375 901.292969 382.273438 897.355469 379.542969 897.960938 C 371.664062 900.082031 363.480469 902.203125 355.597656 904.929688 C 352.265625 905.839844 353.78125 911.292969 357.113281 910.386719 Z M 762.058594 941.898438 C 730.839844 923.109375 694.164062 927.050781 667.1875 949.777344 C 666.277344 923.414062 665.671875 897.355469 664.460938 870.996094 C 664.460938 867.660156 659.308594 867.660156 659.308594 870.996094 C 659.914062 898.871094 660.824219 927.050781 661.730469 954.925781 C 661.429688 955.53125 661.429688 956.136719 661.730469 956.441406 C 662.035156 961.289062 662.035156 965.835938 662.339844 970.683594 C 662.339844 974.320312 668.097656 974.320312 668.097656 970.683594 C 668.097656 965.53125 667.792969 960.378906 667.492188 955.230469 C 693.859375 931.898438 728.414062 929.472656 759.632812 946.140625 C 762.363281 948.261719 764.789062 943.714844 762.058594 941.898438 Z M 728.71875 1273.082031 C 614.75 1310.957031 495.933594 1313.078125 381.664062 1273.992188 C 378.332031 1272.777344 376.816406 1278.234375 380.148438 1279.445312 C 493.8125 1318.230469 616.875 1319.136719 729.628906 1276.71875 C 732.050781 1275.808594 731.144531 1272.171875 728.71875 1273.082031 Z M 674.765625 1985.75 C 612.933594 1980.292969 550.492188 1980.597656 488.359375 1983.023438 C 488.359375 1969.386719 489.265625 1954.539062 499.269531 1946.359375 C 501.390625 1944.539062 498.664062 1940.601562 496.238281 1942.417969 C 482.902344 1952.113281 482.597656 1969.6875 482.597656 1985.75 C 482.597656 1986.050781 482.597656 1986.355469 482.597656 1986.65625 C 482.597656 1986.960938 482.597656 1987.261719 482.597656 1987.566406 C 426.523438 1982.71875 370.148438 1984.234375 314.375 1987.871094 C 310.738281 1988.171875 310.738281 1993.929688 314.375 1993.625 C 370.449219 1989.6875 426.523438 1990.292969 482.597656 1991.808594 C 482.597656 1993.929688 482.597656 1996.355469 482.597656 1998.171875 C 482.597656 2001.808594 488.054688 2001.808594 488.359375 1998.171875 C 488.359375 1995.140625 488.359375 1991.808594 488.359375 1988.476562 C 550.492188 1986.050781 612.628906 1987.566406 674.765625 1989.382812 C 677.191406 1989.6875 677.191406 1985.75 674.765625 1985.75 Z M 518.0625 959.472656 C 528.972656 937.65625 539.582031 915.535156 550.492188 893.417969 C 552.007812 890.386719 547.460938 887.660156 545.945312 890.691406 C 535.035156 912.503906 523.820312 934.320312 513.210938 956.441406 C 511.695312 959.773438 516.242188 962.5 518.0625 959.472656 Z M 569.890625 937.050781 C 572.316406 934.320312 573.226562 930.6875 574.4375 927.351562 C 575.652344 924.019531 570.5 922.808594 569.285156 925.839844 C 568.074219 928.867188 566.253906 932.199219 565.953125 935.535156 C 565.953125 937.351562 568.679688 938.5625 569.890625 937.050781 Z M 381.058594 1251.871094 C 377.726562 1250.660156 376.210938 1256.113281 379.542969 1257.324219 C 493.207031 1296.109375 616.265625 1297.019531 729.019531 1254.597656 C 731.445312 1253.6875 730.535156 1250.054688 728.113281 1250.660156 C 614.144531 1288.835938 495.328125 1290.957031 381.058594 1251.871094 Z M 364.691406 1937.269531 C 361.964844 1935.753906 359.84375 1939.691406 362.265625 1941.207031 C 370.753906 1946.964844 376.210938 1954.234375 381.96875 1962.113281 C 384.089844 1964.839844 388.03125 1962.71875 386.515625 1959.386719 C 382.273438 1949.992188 373.480469 1942.417969 364.691406 1937.269531 Z M 381.664062 1935.148438 C 379.242188 1933.328125 377.117188 1937.269531 379.242188 1939.085938 C 385.910156 1944.238281 391.0625 1950.601562 395.609375 1957.570312 C 397.730469 1960.597656 402.277344 1957.871094 400.457031 1954.84375 C 396.214844 1946.660156 389.242188 1940.296875 381.664062 1935.148438 Z M 415.308594 1949.386719 C 409.855469 1942.722656 403.488281 1936.660156 397.730469 1930.296875 C 395.609375 1927.875 392.273438 1931.511719 394.394531 1933.632812 C 400.15625 1940.296875 405.308594 1946.964844 411.371094 1953.328125 C 413.792969 1956.054688 417.429688 1952.113281 415.308594 1949.386719 Z M 531.09375 1937.570312 C 528.671875 1936.054688 526.851562 1939.691406 528.972656 1941.207031 C 535.640625 1946.054688 541.402344 1952.417969 546.855469 1958.78125 C 548.976562 1961.207031 553.222656 1957.871094 551.101562 1955.449219 C 545.644531 1948.175781 538.976562 1942.417969 531.09375 1937.570312 Z M 552.3125 1937.570312 C 549.585938 1936.359375 547.460938 1939.996094 549.886719 1941.511719 C 556.554688 1945.144531 561.707031 1950.902344 564.738281 1957.570312 C 566.253906 1960.902344 571.105469 1957.871094 569.589844 1954.84375 C 565.953125 1946.964844 560.191406 1941.207031 552.3125 1937.570312 Z M 588.683594 1953.933594 C 590.804688 1954.84375 593.230469 1952.722656 592.019531 1950.601562 C 589.898438 1946.660156 585.652344 1943.933594 582.621094 1940.902344 C 578.984375 1937.570312 575.347656 1934.539062 571.710938 1931.207031 C 569.589844 1929.085938 566.253906 1932.417969 568.375 1934.539062 C 571.710938 1937.875 575.046875 1941.507812 578.683594 1944.84375 C 581.714844 1947.871094 584.746094 1952.113281 588.683594 1953.933594 Z M 588.683594 1953.933594 " fill-opacity="1" fill-rule="nonzero"/></svg>