<svg xmlns="http://www.w3.org/2000/svg" xmlns:xlink="http://www.w3.org/1999/xlink" width="500" zoomAndPan="magnify" viewBox="0 0 375 374.999991" height="500" preserveAspectRatio="xMidYMid meet" version="1.0"><defs><clipPath id="f043b6c830"><path d="M 143.046875 133.332031 L 183 133.332031 L 183 173 L 143.046875 173 Z M 143.046875 133.332031 " clip-rule="nonzero"/></clipPath><clipPath id="b5d7ce1b76"><path d="M 192 133.332031 L 232.296875 133.332031 L 232.296875 173 L 192 173 Z M 192 133.332031 " clip-rule="nonzero"/></clipPath><clipPath id="e449343c28"><path d="M 143.046875 182 L 183 182 L 183 222.582031 L 143.046875 222.582031 Z M 143.046875 182 " clip-rule="nonzero"/></clipPath><clipPath id="8521baa8bb"><path d="M 192 182 L 232.296875 182 L 232.296875 222.582031 L 192 222.582031 Z M 192 182 " clip-rule="nonzero"/></clipPath></defs><g clip-path="url(#f043b6c830)"><path fill="#000000" d="M 180.234375 133.332031 L 145.523438 133.332031 C 145.195312 133.332031 144.878906 133.394531 144.574219 133.519531 C 144.273438 133.648438 144.003906 133.824219 143.773438 134.058594 C 143.539062 134.289062 143.359375 134.558594 143.234375 134.863281 C 143.109375 135.167969 143.046875 135.484375 143.046875 135.8125 L 143.046875 170.519531 C 143.046875 170.847656 143.109375 171.164062 143.234375 171.46875 C 143.359375 171.773438 143.539062 172.039062 143.773438 172.273438 C 144.003906 172.503906 144.273438 172.683594 144.574219 172.808594 C 144.878906 172.9375 145.195312 173 145.523438 173 L 180.234375 173 C 180.5625 173 180.878906 172.9375 181.183594 172.808594 C 181.484375 172.683594 181.753906 172.503906 181.984375 172.273438 C 182.21875 172.039062 182.398438 171.773438 182.523438 171.46875 C 182.648438 171.164062 182.710938 170.847656 182.710938 170.519531 L 182.710938 135.8125 C 182.710938 135.484375 182.648438 135.167969 182.523438 134.863281 C 182.398438 134.558594 182.21875 134.289062 181.984375 134.058594 C 181.753906 133.824219 181.484375 133.648438 181.183594 133.519531 C 180.878906 133.394531 180.5625 133.332031 180.234375 133.332031 Z M 177.753906 168.039062 L 148.003906 168.039062 L 148.003906 138.289062 L 177.753906 138.289062 Z M 177.753906 168.039062 " fill-opacity="1" fill-rule="nonzero"/></g><g clip-path="url(#b5d7ce1b76)"><path fill="#000000" d="M 229.816406 133.332031 L 195.109375 133.332031 C 194.78125 133.332031 194.464844 133.394531 194.160156 133.519531 C 193.855469 133.648438 193.585938 133.824219 193.355469 134.058594 C 193.121094 134.289062 192.945312 134.558594 192.816406 134.863281 C 192.691406 135.167969 192.628906 135.484375 192.628906 135.8125 L 192.628906 170.519531 C 192.628906 170.847656 192.691406 171.164062 192.816406 171.46875 C 192.945312 171.773438 193.121094 172.039062 193.355469 172.273438 C 193.585938 172.503906 193.855469 172.683594 194.160156 172.808594 C 194.464844 172.9375 194.78125 173 195.109375 173 L 229.816406 173 C 230.144531 173 230.460938 172.9375 230.765625 172.808594 C 231.070312 172.683594 231.335938 172.503906 231.570312 172.273438 C 231.800781 172.039062 231.980469 171.773438 232.105469 171.46875 C 232.234375 171.164062 232.296875 170.847656 232.296875 170.519531 L 232.296875 135.8125 C 232.296875 135.484375 232.234375 135.167969 232.105469 134.863281 C 231.980469 134.558594 231.800781 134.289062 231.570312 134.058594 C 231.335938 133.824219 231.070312 133.648438 230.765625 133.519531 C 230.460938 133.394531 230.144531 133.332031 229.816406 133.332031 Z M 227.335938 168.039062 L 197.585938 168.039062 L 197.585938 138.289062 L 227.335938 138.289062 Z M 227.335938 168.039062 " fill-opacity="1" fill-rule="nonzero"/></g><g clip-path="url(#e449343c28)"><path fill="#000000" d="M 180.234375 182.914062 L 145.523438 182.914062 C 145.195312 182.914062 144.878906 182.976562 144.574219 183.105469 C 144.273438 183.230469 144.003906 183.410156 143.773438 183.640625 C 143.539062 183.875 143.359375 184.140625 143.234375 184.445312 C 143.109375 184.75 143.046875 185.066406 143.046875 185.394531 L 143.046875 220.101562 C 143.046875 220.429688 143.109375 220.746094 143.234375 221.050781 C 143.359375 221.355469 143.539062 221.625 143.773438 221.855469 C 144.003906 222.089844 144.273438 222.265625 144.574219 222.394531 C 144.878906 222.519531 145.195312 222.582031 145.523438 222.582031 L 180.234375 222.582031 C 180.5625 222.582031 180.878906 222.519531 181.183594 222.394531 C 181.484375 222.265625 181.753906 222.089844 181.984375 221.855469 C 182.21875 221.625 182.398438 221.355469 182.523438 221.050781 C 182.648438 220.746094 182.710938 220.429688 182.710938 220.101562 L 182.710938 185.394531 C 182.710938 185.066406 182.648438 184.75 182.523438 184.445312 C 182.398438 184.140625 182.21875 183.875 181.984375 183.640625 C 181.753906 183.410156 181.484375 183.230469 181.183594 183.105469 C 180.878906 182.976562 180.5625 182.914062 180.234375 182.914062 Z M 177.753906 217.625 L 148.003906 217.625 L 148.003906 187.875 L 177.753906 187.875 Z M 177.753906 217.625 " fill-opacity="1" fill-rule="nonzero"/></g><g clip-path="url(#8521baa8bb)"><path fill="#000000" d="M 229.816406 182.914062 L 195.109375 182.914062 C 194.78125 182.914062 194.464844 182.976562 194.160156 183.105469 C 193.855469 183.230469 193.585938 183.410156 193.355469 183.640625 C 193.121094 183.875 192.945312 184.140625 192.816406 184.445312 C 192.691406 184.75 192.628906 185.066406 192.628906 185.394531 L 192.628906 220.101562 C 192.628906 220.429688 192.691406 220.746094 192.816406 221.050781 C 192.945312 221.355469 193.121094 221.625 193.355469 221.855469 C 193.585938 222.089844 193.855469 222.265625 194.160156 222.394531 C 194.464844 222.519531 194.78125 222.582031 195.109375 222.582031 L 229.816406 222.582031 C 230.144531 222.582031 230.460938 222.519531 230.765625 222.394531 C 231.070312 222.265625 231.335938 222.089844 231.570312 221.855469 C 231.800781 221.625 231.980469 221.355469 232.105469 221.050781 C 232.234375 220.746094 232.296875 220.429688 232.296875 220.101562 L 232.296875 185.394531 C 232.296875 185.066406 232.234375 184.75 232.105469 184.445312 C 231.980469 184.140625 231.800781 183.875 231.570312 183.640625 C 231.335938 183.410156 231.070312 183.230469 230.765625 183.105469 C 230.460938 182.976562 230.144531 182.914062 229.816406 182.914062 Z M 227.335938 217.625 L 197.585938 217.625 L 197.585938 187.875 L 227.335938 187.875 Z M 227.335938 217.625 " fill-opacity="1" fill-rule="nonzero"/></g><path fill="#000000" d="M 156.679688 155.644531 L 160.398438 155.644531 L 160.398438 159.363281 C 160.398438 159.691406 160.460938 160.007812 160.589844 160.3125 C 160.714844 160.617188 160.894531 160.882812 161.125 161.117188 C 161.359375 161.347656 161.625 161.527344 161.929688 161.652344 C 162.234375 161.78125 162.550781 161.84375 162.878906 161.84375 C 163.207031 161.84375 163.523438 161.78125 163.828125 161.652344 C 164.132812 161.527344 164.398438 161.347656 164.632812 161.117188 C 164.863281 160.882812 165.042969 160.617188 165.167969 160.3125 C 165.296875 160.007812 165.359375 159.691406 165.359375 159.363281 L 165.359375 155.644531 L 169.078125 155.644531 C 169.40625 155.644531 169.722656 155.582031 170.027344 155.457031 C 170.328125 155.328125 170.597656 155.152344 170.828125 154.917969 C 171.0625 154.6875 171.242188 154.417969 171.367188 154.113281 C 171.492188 153.808594 171.554688 153.492188 171.554688 153.164062 C 171.554688 152.835938 171.492188 152.519531 171.367188 152.214844 C 171.242188 151.914062 171.0625 151.644531 170.828125 151.414062 C 170.597656 151.179688 170.328125 151 170.027344 150.875 C 169.722656 150.75 169.40625 150.6875 169.078125 150.6875 L 165.359375 150.6875 L 165.359375 146.96875 C 165.359375 146.640625 165.296875 146.324219 165.167969 146.019531 C 165.042969 145.714844 164.863281 145.445312 164.632812 145.214844 C 164.398438 144.980469 164.132812 144.804688 163.828125 144.675781 C 163.523438 144.550781 163.207031 144.488281 162.878906 144.488281 C 162.550781 144.488281 162.234375 144.550781 161.929688 144.675781 C 161.625 144.804688 161.359375 144.980469 161.125 145.214844 C 160.894531 145.445312 160.714844 145.714844 160.589844 146.019531 C 160.460938 146.324219 160.398438 146.640625 160.398438 146.96875 L 160.398438 150.6875 L 156.679688 150.6875 C 156.351562 150.6875 156.035156 150.75 155.730469 150.875 C 155.429688 151 155.160156 151.179688 154.929688 151.414062 C 154.695312 151.644531 154.515625 151.914062 154.390625 152.214844 C 154.265625 152.519531 154.203125 152.835938 154.203125 153.164062 C 154.203125 153.492188 154.265625 153.808594 154.390625 154.113281 C 154.515625 154.417969 154.695312 154.6875 154.929688 154.917969 C 155.160156 155.152344 155.429688 155.328125 155.730469 155.457031 C 156.035156 155.582031 156.351562 155.644531 156.679688 155.644531 Z M 156.679688 155.644531 " fill-opacity="1" fill-rule="nonzero"/><path fill="#000000" d="M 206.265625 155.644531 L 218.660156 155.644531 C 218.988281 155.644531 219.304688 155.582031 219.609375 155.457031 C 219.914062 155.328125 220.179688 155.152344 220.414062 154.917969 C 220.644531 154.6875 220.824219 154.417969 220.949219 154.113281 C 221.078125 153.808594 221.140625 153.492188 221.140625 153.164062 C 221.140625 152.835938 221.078125 152.519531 220.949219 152.214844 C 220.824219 151.914062 220.644531 151.644531 220.414062 151.414062 C 220.179688 151.179688 219.914062 151 219.609375 150.875 C 219.304688 150.75 218.988281 150.6875 218.660156 150.6875 L 206.265625 150.6875 C 205.9375 150.6875 205.621094 150.75 205.316406 150.875 C 205.011719 151 204.742188 151.179688 204.511719 151.414062 C 204.277344 151.644531 204.101562 151.914062 203.972656 152.214844 C 203.847656 152.519531 203.785156 152.835938 203.785156 153.164062 C 203.785156 153.492188 203.847656 153.808594 203.972656 154.113281 C 204.101562 154.417969 204.277344 154.6875 204.511719 154.917969 C 204.742188 155.152344 205.011719 155.328125 205.316406 155.457031 C 205.621094 155.582031 205.9375 155.644531 206.265625 155.644531 Z M 206.265625 155.644531 " fill-opacity="1" fill-rule="nonzero"/><path fill="#000000" d="M 206.265625 210.1875 L 218.660156 210.1875 C 218.988281 210.1875 219.304688 210.125 219.609375 209.996094 C 219.914062 209.871094 220.179688 209.691406 220.414062 209.460938 C 220.644531 209.226562 220.824219 208.960938 220.949219 208.65625 C 221.078125 208.351562 221.140625 208.035156 221.140625 207.707031 C 221.140625 207.378906 221.078125 207.0625 220.949219 206.757812 C 220.824219 206.453125 220.644531 206.1875 220.414062 205.953125 C 220.179688 205.722656 219.914062 205.542969 219.609375 205.417969 C 219.304688 205.289062 218.988281 205.226562 218.660156 205.226562 L 206.265625 205.226562 C 205.9375 205.226562 205.621094 205.289062 205.316406 205.417969 C 205.011719 205.542969 204.742188 205.722656 204.511719 205.953125 C 204.277344 206.1875 204.101562 206.453125 203.972656 206.757812 C 203.847656 207.0625 203.785156 207.378906 203.785156 207.707031 C 203.785156 208.035156 203.847656 208.351562 203.972656 208.65625 C 204.101562 208.960938 204.277344 209.226562 204.511719 209.460938 C 204.742188 209.691406 205.011719 209.871094 205.316406 209.996094 C 205.621094 210.125 205.9375 210.1875 206.265625 210.1875 Z M 206.265625 210.1875 " fill-opacity="1" fill-rule="nonzero"/><path fill="#000000" d="M 206.265625 200.269531 L 218.660156 200.269531 C 218.988281 200.269531 219.304688 200.207031 219.609375 200.082031 C 219.914062 199.953125 220.179688 199.777344 220.414062 199.542969 C 220.644531 199.3125 220.824219 199.042969 220.949219 198.738281 C 221.078125 198.433594 221.140625 198.117188 221.140625 197.789062 C 221.140625 197.460938 221.078125 197.144531 220.949219 196.839844 C 220.824219 196.539062 220.644531 196.269531 220.414062 196.039062 C 220.179688 195.804688 219.914062 195.625 219.609375 195.5 C 219.304688 195.375 218.988281 195.3125 218.660156 195.3125 L 206.265625 195.3125 C 205.9375 195.3125 205.621094 195.375 205.316406 195.5 C 205.011719 195.625 204.742188 195.804688 204.511719 196.039062 C 204.277344 196.269531 204.101562 196.539062 203.972656 196.839844 C 203.847656 197.144531 203.785156 197.460938 203.785156 197.789062 C 203.785156 198.117188 203.847656 198.433594 203.972656 198.738281 C 204.101562 199.042969 204.277344 199.3125 204.511719 199.542969 C 204.742188 199.777344 205.011719 199.953125 205.316406 200.082031 C 205.621094 200.207031 205.9375 200.269531 206.265625 200.269531 Z M 206.265625 200.269531 " fill-opacity="1" fill-rule="nonzero"/><path fill="#000000" d="M 156.164062 209.464844 C 156.398438 209.695312 156.667969 209.875 156.96875 210 C 157.273438 210.125 157.589844 210.1875 157.921875 210.1875 C 158.25 210.1875 158.566406 210.125 158.871094 210 C 159.175781 209.875 159.445312 209.695312 159.679688 209.464844 L 162.878906 206.265625 L 166.078125 209.464844 C 166.3125 209.695312 166.582031 209.875 166.886719 210 C 167.191406 210.125 167.507812 210.1875 167.835938 210.1875 C 168.167969 210.1875 168.484375 210.125 168.789062 210 C 169.09375 209.875 169.359375 209.695312 169.59375 209.464844 C 169.828125 209.230469 170.007812 208.964844 170.136719 208.660156 C 170.261719 208.355469 170.328125 208.035156 170.328125 207.707031 C 170.328125 207.378906 170.261719 207.058594 170.136719 206.753906 C 170.007812 206.449219 169.828125 206.183594 169.59375 205.949219 L 166.394531 202.75 L 169.59375 199.546875 C 169.828125 199.316406 170.007812 199.046875 170.132812 198.742188 C 170.257812 198.4375 170.320312 198.121094 170.320312 197.789062 C 170.320312 197.460938 170.257812 197.144531 170.132812 196.839844 C 170.007812 196.535156 169.828125 196.265625 169.59375 196.035156 C 169.359375 195.800781 169.09375 195.621094 168.789062 195.496094 C 168.484375 195.367188 168.167969 195.304688 167.835938 195.304688 C 167.507812 195.304688 167.191406 195.367188 166.886719 195.496094 C 166.582031 195.621094 166.3125 195.800781 166.078125 196.03125 L 162.878906 199.234375 L 159.679688 196.03125 C 159.445312 195.800781 159.175781 195.617188 158.871094 195.492188 C 158.566406 195.367188 158.25 195.304688 157.921875 195.304688 C 157.589844 195.304688 157.273438 195.367188 156.96875 195.492188 C 156.664062 195.617188 156.394531 195.796875 156.160156 196.03125 C 155.929688 196.265625 155.75 196.535156 155.621094 196.839844 C 155.496094 197.144531 155.433594 197.460938 155.433594 197.789062 C 155.433594 198.121094 155.496094 198.4375 155.621094 198.742188 C 155.75 199.046875 155.929688 199.316406 156.164062 199.546875 L 159.363281 202.75 L 156.164062 205.949219 C 155.929688 206.183594 155.75 206.449219 155.621094 206.753906 C 155.496094 207.058594 155.429688 207.378906 155.429688 207.707031 C 155.429688 208.035156 155.496094 208.355469 155.621094 208.660156 C 155.75 208.964844 155.929688 209.230469 156.164062 209.464844 Z M 156.164062 209.464844 " fill-opacity="1" fill-rule="nonzero"/></svg>